HIERARCHY
ROOT Hips
{
    OFFSET   0.000000   0.000000   0.000000
    CHANNELS 6 Xposition Yposition Zposition Zrotation Xrotation Yrotation
    JOINT Chest
    {
        OFFSET   0.000000   8.007230   0.000000
        CHANNELS 3 Zrotation Xrotation Yrotation
        JOINT Chest2
        {
            OFFSET   0.000000  22.077100   0.000000
            CHANNELS 3 Zrotation Xrotation Yrotation
            JOINT Neck
            {
                OFFSET   0.000000  23.254800  -0.000021
                CHANNELS 3 Zrotation Xrotation Yrotation
                JOINT Head
                {
                    OFFSET   0.000000  14.370000   1.956610
                    CHANNELS 3 Zrotation Xrotation Yrotation
                    End Site
                    {
                        OFFSET   0.000000  19.566000   0.000000
                    }
                }
            }
            JOINT LeftCollar
            {
                OFFSET   3.911900  19.017000  -0.467063
                CHANNELS 3 Zrotation Xrotation Yrotation
                JOINT LeftShoulder
                {
                    OFFSET  10.383700   0.000000   0.000000
                    CHANNELS 3 Zrotation Xrotation Yrotation
                    JOINT LeftElbow
                    {
                        OFFSET  26.662100   0.001529   0.000325
                        CHANNELS 3 Zrotation Xrotation Yrotation
                        JOINT LeftWrist
                        {
                            OFFSET  28.869000  -0.000011  -0.000096
                            CHANNELS 3 Zrotation Xrotation Yrotation
                            JOINT LeftFinger0
                            {
                                OFFSET   2.044650  -2.323460   3.252850
                                CHANNELS 3 Zrotation Xrotation Yrotation
                                JOINT LeftFinger01
                                {
                                    OFFSET   3.088130   0.000000   0.000000
                                    CHANNELS 3 Zrotation Xrotation Yrotation
                                    JOINT LeftFinger02
                                    {
                                        OFFSET   2.639460   0.000000   0.000000
                                        CHANNELS 3 Zrotation Xrotation Yrotation
                                        End Site
                                        {
                                            OFFSET   2.582190   0.000000   0.000000
                                        }
                                    }
                                }
                            }
                            JOINT LeftFinger1
                            {
                                OFFSET   8.364480   0.000000   3.252850
                                CHANNELS 3 Zrotation Xrotation Yrotation
                                JOINT LeftFinger11
                                {
                                    OFFSET   4.646930   0.000000   0.000000
                                    CHANNELS 3 Zrotation Xrotation Yrotation
                                    JOINT LeftFinger12
                                    {
                                        OFFSET   2.323460   0.000000   0.000000
                                        CHANNELS 3 Zrotation Xrotation Yrotation
                                        End Site
                                        {
                                            OFFSET   2.273050   0.000000   0.000000
                                        }
                                    }
                                }
                            }
                            JOINT LeftFinger2
                            {
                                OFFSET   8.364480   0.000016   1.078090
                                CHANNELS 3 Zrotation Xrotation Yrotation
                                JOINT LeftFinger21
                                {
                                    OFFSET   5.111620   0.000000   0.000000
                                    CHANNELS 3 Zrotation Xrotation Yrotation
                                    JOINT LeftFinger22
                                    {
                                        OFFSET   2.788160   0.000017   0.000000
                                        CHANNELS 3 Zrotation Xrotation Yrotation
                                        End Site
                                        {
                                            OFFSET   2.727660   0.000000   0.000000
                                        }
                                    }
                                }
                            }
                            JOINT LeftFinger3
                            {
                                OFFSET   7.899780   0.000015  -1.078090
                                CHANNELS 3 Zrotation Xrotation Yrotation
                                JOINT LeftFinger31
                                {
                                    OFFSET   4.646920   0.000000   0.000000
                                    CHANNELS 3 Zrotation Xrotation Yrotation
                                    JOINT LeftFinger32
                                    {
                                        OFFSET   2.323470   0.000000   0.000000
                                        CHANNELS 3 Zrotation Xrotation Yrotation
                                        End Site
                                        {
                                            OFFSET   2.273050   0.000000   0.000000
                                        }
                                    }
                                }
                            }
                            JOINT LeftFinger4
                            {
                                OFFSET   7.435090   0.000000  -3.252850
                                CHANNELS 3 Zrotation Xrotation Yrotation
                                JOINT LeftFinger41
                                {
                                    OFFSET   3.717550   0.000000   0.000000
                                    CHANNELS 3 Zrotation Xrotation Yrotation
                                    JOINT LeftFinger42
                                    {
                                        OFFSET   1.858760   0.000000   0.000000
                                        CHANNELS 3 Zrotation Xrotation Yrotation
                                        End Site
                                        {
                                            OFFSET   1.818440   0.000000   0.000000
                                        }
                                    }
                                }
                            }
                        }
                    }
                }
            }
            JOINT RightCollar
            {
                OFFSET  -3.911900  19.017000  -0.467062
                CHANNELS 3 Zrotation Xrotation Yrotation
                JOINT RightShoulder
                {
                    OFFSET -10.383700   0.000015   0.000000
                    CHANNELS 3 Zrotation Xrotation Yrotation
                    JOINT RightElbow
                    {
                        OFFSET -26.662100   0.001341   0.000385
                        CHANNELS 3 Zrotation Xrotation Yrotation
                        JOINT RightWrist
                        {
                            OFFSET -28.869000   0.000025  -0.000080
                            CHANNELS 3 Zrotation Xrotation Yrotation
                            JOINT RightFinger0
                            {
                                OFFSET  -2.044650  -2.323490   3.252850
                                CHANNELS 3 Zrotation Xrotation Yrotation
                                JOINT RightFinger01
                                {
                                    OFFSET  -3.088130   0.000000   0.000000
                                    CHANNELS 3 Zrotation Xrotation Yrotation
                                    JOINT RightFinger02
                                    {
                                        OFFSET  -2.639460   0.000000   0.000000
                                        CHANNELS 3 Zrotation Xrotation Yrotation
                                        End Site
                                        {
                                            OFFSET  -2.582190   0.000000   0.000000
                                        }
                                    }
                                }
                            }
                            JOINT RightFinger1
                            {
                                OFFSET  -8.364480   0.000000   3.252850
                                CHANNELS 3 Zrotation Xrotation Yrotation
                                JOINT RightFinger11
                                {
                                    OFFSET  -4.646930   0.000000   0.000000
                                    CHANNELS 3 Zrotation Xrotation Yrotation
                                    JOINT RightFinger12
                                    {
                                        OFFSET  -2.323470   0.000000   0.000000
                                        CHANNELS 3 Zrotation Xrotation Yrotation
                                        End Site
                                        {
                                            OFFSET  -2.273050   0.000000   0.000000
                                        }
                                    }
                                }
                            }
                            JOINT RightFinger2
                            {
                                OFFSET  -8.364480   0.000000   1.078090
                                CHANNELS 3 Zrotation Xrotation Yrotation
                                JOINT RightFinger21
                                {
                                    OFFSET  -5.111610   0.000000   0.000000
                                    CHANNELS 3 Zrotation Xrotation Yrotation
                                    JOINT RightFinger22
                                    {
                                        OFFSET  -2.788160   0.000000   0.000000
                                        CHANNELS 3 Zrotation Xrotation Yrotation
                                        End Site
                                        {
                                            OFFSET  -2.727660   0.000000   0.000000
                                        }
                                    }
                                }
                            }
                            JOINT RightFinger3
                            {
                                OFFSET  -7.899780   0.000000  -1.078090
                                CHANNELS 3 Zrotation Xrotation Yrotation
                                JOINT RightFinger31
                                {
                                    OFFSET  -4.646920   0.000000   0.000000
                                    CHANNELS 3 Zrotation Xrotation Yrotation
                                    JOINT RightFinger32
                                    {
                                        OFFSET  -2.323470   0.000000   0.000000
                                        CHANNELS 3 Zrotation Xrotation Yrotation
                                        End Site
                                        {
                                            OFFSET  -2.273050   0.000000   0.000000
                                        }
                                    }
                                }
                            }
                            JOINT RightFinger4
                            {
                                OFFSET  -7.435090   0.000000  -3.252850
                                CHANNELS 3 Zrotation Xrotation Yrotation
                                JOINT RightFinger41
                                {
                                    OFFSET  -3.717550   0.000000   0.000000
                                    CHANNELS 3 Zrotation Xrotation Yrotation
                                    JOINT RightFinger42
                                    {
                                        OFFSET  -1.858770   0.000000   0.000000
                                        CHANNELS 3 Zrotation Xrotation Yrotation
                                        End Site
                                        {
                                            OFFSET  -1.818440   0.000000   0.000000
                                        }
                                    }
                                }
                            }
                        }
                    }
                }
            }
        }
    }
    JOINT LeftHip
    {
        OFFSET   9.783010   0.000000   0.000000
        CHANNELS 3 Zrotation Xrotation Yrotation
        JOINT LeftKnee
        {
            OFFSET   0.000070 -41.789100   0.000028
            CHANNELS 3 Zrotation Xrotation Yrotation
            JOINT LeftAnkle
            {
                OFFSET   0.000087 -41.133200  -0.000100
                CHANNELS 3 Zrotation Xrotation Yrotation
                JOINT LeftToe
                {
                    OFFSET   0.000000  -6.358960  14.674500
                    CHANNELS 3 Zrotation Xrotation Yrotation
                    End Site
                    {
                        OFFSET   0.000000   0.000000   3.913200
                    }
                }
            }
        }
    }
    JOINT RightHip
    {
        OFFSET  -9.783020   0.000000   0.000000
        CHANNELS 3 Zrotation Xrotation Yrotation
        JOINT RightKnee
        {
            OFFSET   0.000044 -41.789100  -0.000870
            CHANNELS 3 Zrotation Xrotation Yrotation
            JOINT RightAnkle
            {
                OFFSET  -0.000090 -41.133200  -0.000245
                CHANNELS 3 Zrotation Xrotation Yrotation
                JOINT RightToe
                {
                    OFFSET   0.000000  -6.358960  14.674500
                    CHANNELS 3 Zrotation Xrotation Yrotation
                    End Site
                    {
                        OFFSET   0.000000   0.000000   3.913200
                    }
                }
            }
        }
    }
}
MOTION
Frames: 5
Frame Time:   0.016667
 -2.164530  89.891600   0.776112  -0.859161  -9.758050  -5.369770   0.409854   6.053910  -1.214040   0.957555  12.097600  -2.492680   3.072990   0.581218  -0.031343   5.049880   1.168150  10.990900  -4.083090  -0.345857   6.816170 -60.827500  -8.754130 -32.961900  13.651900 -15.380600 -77.003900   9.117600  -9.678360   7.434350  39.818000  24.388100 -63.103900  -2.555920   0.001380   0.000193   3.722040   0.001903   0.004275 -12.564600   1.261340  -5.643890 -10.330000  -0.000718   0.000266  -7.230990   0.001199   0.004341 -27.396700  -1.008960   1.960550 -28.411000   0.000331   0.003402 -18.921700   0.002565   0.002204 -21.132200  -0.791385   2.060870 -21.147500   0.002204   0.001666 -14.084200   0.002369   0.011817 -23.637600  -4.211360   9.532570 -35.982800  -0.001095   0.002421 -23.964500   0.006238   0.003539   7.339790   1.518660   7.292200  48.985900 -14.603700  28.789500 -17.447700 -19.001200  69.833700 -20.508800   5.607630   5.132960 -44.751400  22.969300  52.887300  -2.977080  -0.028217  -0.001131  -6.488530  -0.013997  -0.001276  16.823100  -0.861401  -2.867300  13.782300   0.002148  -0.010732   9.647630   0.003118  -0.011185  14.979700  -2.222750  -8.270070  15.140500   0.005328  -0.013232  10.083600   0.003711  -0.006004  18.302000  -3.982320 -11.852800  18.866400   0.003295   0.003147  12.565000   0.002725   0.000852  26.754700  -6.195540 -12.081900  41.115200   0.006470  -0.002642  27.382700  -0.002472  -0.003800   0.599403  11.010400   2.603060   0.418163   3.676520  11.665300  -5.963230  -5.660900   4.280260   0.000000   0.000000   0.000000   3.264800  11.548500  -9.277550   0.634050   1.618370  -5.890510 -12.328400  -0.756128   4.374830  -0.000000   0.000000  -0.000000
 -2.157430  89.890800   0.776878  -0.826774  -9.680710  -5.314700   0.401770   6.008140  -1.208890   0.939540  12.006300  -2.481010   3.020010   0.548188  -0.029169   4.962700   1.101870  11.021600  -4.102690  -0.510957   6.910240 -60.654400  -7.992800 -32.556300  13.957600 -15.651900 -76.685500   9.611140 -10.083400   7.351150  39.983700  24.944300 -63.681400  -3.091330   0.001837   0.000213   3.454330   0.001540   0.000152 -13.505300   1.464980  -6.074550 -11.113000  -0.000719   0.000279  -7.779100   0.001195   0.004545 -27.684500  -0.986370   1.882320 -30.071900   0.000336   0.003580 -20.027900   0.002565   0.002330 -21.929100  -0.791107   1.972960 -21.942700   0.002316   0.001628 -14.613800   0.002407   0.013133 -24.393100  -4.257520   9.303830 -37.109200  -0.001029   0.002379 -24.714700   0.006232   0.007569   7.375620   1.494380   7.366110  48.982300 -14.195800  28.507100 -17.595100 -19.129800  69.703800 -20.660900   5.569040   5.070750 -44.610100  23.604700  54.388100  -1.438870  -0.040293  -0.000970  -5.719430  -0.019950  -0.001323  17.713900  -0.847927  -2.664070  14.509600   0.002153  -0.010747  10.156700   0.003095  -0.011212  15.861600  -2.332010  -8.176650  16.027900   0.005395  -0.013337  10.674600   0.003744  -0.006012  19.343000  -4.147300 -11.645200  19.893600   0.003353   0.003161  13.249100   0.002745   0.000769  27.656700  -6.422620 -12.056800  42.502700   0.006847  -0.002663  28.306800  -0.002440  -0.003799   0.593849  10.900600   2.580460   0.418844   3.687890  11.648500  -5.984470  -5.641530   4.271590  -0.000000   0.000000   0.000000   3.199620  11.461600  -9.203770   0.680820   1.629570  -5.947660 -12.317700  -0.753447   4.335130   0.000000   0.000000  -0.000000
 -2.142860  89.890100   0.774670  -0.785538  -9.586470  -5.250100   0.392983   5.957890  -1.217520   0.921467  11.905900  -2.496980   2.950350   0.524341  -0.027140   4.848280   1.054630  11.102900  -4.167820  -0.692881   6.971860 -60.313000  -7.124240 -32.001100  14.289300 -16.039100 -76.304100  10.098800 -10.561500   7.203250  40.066600  25.411000 -64.232100  -4.072850   0.002381   0.000264   2.963580   0.001157   0.005107 -14.750600   1.705710  -6.433020 -12.147600   0.004173   0.004052  -8.503290   0.001229   0.004736 -28.067800  -0.988230   1.856350 -31.963400   0.006007   0.016452 -21.287600   0.002578   0.011672 -22.833300  -0.796860   1.940340 -22.838800   0.004343   0.005061 -15.210600   0.002426   0.014340 -25.210600  -4.348750   9.161610 -38.338200  -0.000793   0.006999 -25.533200   0.006227   0.011129   7.442130   1.449360   7.484310  48.931700 -13.664700  28.131400 -17.793800 -19.295200  69.532400 -20.790200   5.802310   4.986570 -44.214800  24.269500  56.327000   0.877755  -0.068634  -0.017832  -4.561120  -0.034266  -0.009615  19.005200  -0.824053  -2.388550  15.563600   0.007711  -0.010743  10.894500   0.003065  -0.011236  17.189600  -2.523280  -8.184160  17.370300   0.013792  -0.013443  11.568700   0.008605  -0.006011  21.243000  -4.444830 -11.304000  21.068600   0.011455   0.001416  14.031600   0.008075  -0.001725  28.823500  -6.706010 -11.996000  44.292000   0.012441  -0.008217  29.498400  -0.002400  -0.008674   0.576096  10.756000   2.557580   0.426404   3.729960  11.624700  -6.006070  -5.617150   4.264450   0.000000   0.000000   0.000000   3.126970  11.373600  -9.137630   0.732764   1.619260  -6.023070 -12.305200  -0.742873   4.312850  -0.000000   0.000000   0.000000
 -2.124370  89.889700   0.768440  -0.741750  -9.482430  -5.180940   0.384291   5.908490  -1.236490   0.904739  11.807100  -2.533400   2.867270   0.496298  -0.024770   4.711630   0.998985  11.222400  -4.274040  -0.886709   7.023490 -59.910400  -6.243370 -31.325200  14.659700 -16.428300 -75.876700  10.499500 -11.120800   7.027270  40.120600  25.808000 -64.731200  -5.306500   0.002961   0.000352   2.346760   0.000779   0.010062 -16.220600   1.956590  -6.618800 -13.364900   0.011613   0.009725  -9.355400   0.001468   0.004924 -28.360100  -1.001150   1.851230 -34.188000   0.014035   0.034369 -22.769200   0.002590   0.024687 -23.838000  -0.837027   1.931840 -23.834200   0.008643   0.011515 -15.873600   0.002441   0.015283 -26.055700  -4.482840   9.101740 -39.617900  -0.000418   0.013969 -26.385500   0.006224   0.014176   7.542680   1.384590   7.635620  48.862000 -13.059000  27.696800 -17.955800 -19.488000  69.315200 -20.869400   6.242170   4.851820 -43.547300  24.778100  58.449900   3.795380  -0.088409  -0.042135  -3.102300  -0.044290  -0.021323  20.562100  -0.807636  -2.208780  16.835800   0.015413  -0.010719  11.785000   0.003034  -0.011249  18.771800  -2.800480  -8.230450  18.969900   0.022627  -0.013503  12.634000   0.013434  -0.006008  23.358400  -4.761320 -10.913200  22.542700   0.022825  -0.003077  15.013400   0.013872  -0.006529  30.164800  -7.028100 -11.912000  46.346400   0.017658  -0.016580  30.866700  -0.002360  -0.015615   0.552540  10.600800   2.537330   0.441834   3.762500  11.598800  -6.019760  -5.590930   4.253490  -0.000000   0.000000   0.000000   3.056070  11.279500  -9.073510   0.780722   1.599130  -6.099900 -12.291900  -0.727050   4.288740  -0.000000   0.000000  -0.000000
 -2.105560  89.890500   0.757817  -0.699084  -9.378060  -5.105710   0.374182   5.868780  -1.264920   0.885937  11.727600  -2.589220   2.770180   0.451971  -0.021430   4.551800   0.910216  11.381400  -4.437340  -1.095770   7.075700 -59.465200  -5.427590 -30.532600  14.959000 -16.722100 -75.375500  10.687200 -11.799600   6.836160  40.162600  26.109900 -65.101700  -6.726710   0.003535   0.000497   1.636650   0.000429   0.007878 -17.916200   2.202850  -6.618180 -14.763400   0.016913   0.013608 -10.334400   0.002158   0.005123 -28.399900  -1.079420   2.001150 -36.979600   0.017809   0.042477 -24.628400   0.002580   0.030597 -24.994800  -0.956728   2.067890 -24.890100   0.016212   0.020168 -16.576900   0.002463   0.015771 -26.892500  -4.678420   9.163440 -40.899100   0.000025   0.018756 -27.238800   0.006225   0.015898   7.697900   1.277480   7.826850  48.766500 -12.410300  27.220300 -18.048500 -19.662600  68.990200 -20.806000   6.812340   4.634990 -42.397100  24.961600  60.514700   7.308900  -0.087350  -0.055040  -1.345530  -0.043867  -0.026904  22.328100  -0.866062  -2.213230  18.281300   0.018456  -0.010692  12.796900   0.003013  -0.011154  20.488500  -3.218430  -8.573020  20.719700   0.023214  -0.013352  13.799300   0.013323  -0.006001  25.220400  -5.031330 -10.531700  24.427900   0.028043  -0.010925  16.268900   0.014436  -0.013034  31.613300  -7.406190 -11.848600  48.571800   0.017194  -0.022367  32.348800  -0.002323  -0.019005   0.524001  10.471700   2.522420   0.459139   3.761840  11.577500  -6.024090  -5.565930   4.226670   0.000000   0.000000   0.000000   3.003590  11.187800  -9.023470   0.810685   1.574520  -6.158440 -12.280800  -0.710417   4.245220  -0.000000   0.000000   0.000000
